<svg version="1" id="svg8" xmlns="http://www.w3.org/2000/svg" viewBox="0 0 4077 779"><style>.st1{fill:none;stroke:#333;stroke-width:25;stroke-linecap:round;stroke-linejoin:round}.st4{fill:#3b9c43}.st5{fill:#333}</style><path id="path4513-6" class="st1" d="M72 525c-33 0-59 32-59 72s24 68 59 73l440 96 395-222"/><path id="path4513-6-7" class="st1" d="M72 380c-33 0-59 32-59 72s24 68 59 73l440 97 395-223"/><path id="path4513-6-7-5-3" class="st1" d="M72 235c-33 0-59 32-59 73s24 67 59 72l214 47m129 28l97 22 395-223"/><path id="path4513-6-7-5-3-5" d="M467 13L61 235l451 97 395-223-440-96z" fill="#333" stroke="#333" stroke-width="25" stroke-linecap="round" stroke-linejoin="round"/><path id="path4513-6-7-5-3-5-2" d="M497 98l-102 57 164 36 102-57-164-36z" fill="#3ba443"/><path id="path4508" class="st4" d="M320 352v147l33-20 36 40V364l-69-12z"/><path class="st4" d="M1073 127h58v198h147V127h58v475h-58V377h-147v225h-58V127zM1486 602l-93-475h62c29 158 58 324 64 394h1c9-71 56-283 78-394h54c22 105 68 324 76 391h2c10-86 52-287 70-391h58l-100 475h-61c-21-107-63-308-74-383h-1c-11 80-54 279-76 383h-60z"/><path class="st5" d="M2290 404l2-227h-1c-17 83-57 274-94 425h-55l-86-426h-2c3 55 5 159 5 240v186h-55V127h87c36 146 71 317 82 381 9-54 52-241 88-381h86v475h-57V404zM2641 536l3 66h-52c-2-8-4-26-4-39-13 27-39 45-83 45-69 0-94-54-94-103 0-67 45-115 138-115l36 1v-46c0-26-5-59-51-59-48 0-52 34-54 58h-55c1-51 26-105 111-105 71 0 105 34 105 100v197zm-55-100c-9-2-18-2-33-2-61 0-85 28-85 66 0 31 16 60 53 60 50 0 65-36 65-107v-17zM2724 356l-1-110h56l2 44c11-26 35-51 83-51 53 0 92 31 92 109v254h-58V360c0-42-13-70-52-70-45 0-64 29-64 98v214h-58V356zM3244 536l3 66h-52c-2-8-4-26-4-39-13 27-39 45-83 45-69 0-94-54-94-103 0-67 45-115 138-115l36 1v-46c0-26-5-59-51-59-48 0-52 34-54 58h-55c1-51 26-105 111-105 71 0 105 34 105 100v197zm-55-100c-8-2-18-2-33-2-60 0-85 28-85 66 0 31 16 60 53 60 50 0 65-36 65-107v-17zM3556 578c0 95-24 160-128 160-93 0-114-60-116-99h58c2 18 12 51 60 51 57 0 69-42 69-112v-30c-13 35-43 53-82 53-73 0-107-62-107-173 0-127 46-188 115-188 48 0 67 23 74 44l2-39h55l-1 104v229zm-187-151c0 84 22 124 64 124 53 0 67-52 67-134 0-80-10-127-63-127-44 0-68 46-68 137zM3679 436c0 65 10 124 65 124 53 0 59-50 61-61h56c-1 10-11 110-118 110s-122-97-122-186c0-113 40-183 125-183 95 0 118 77 118 167l-1 29h-184zm128-45c0-56-12-103-62-103-62 0-65 79-66 103h128zM3927 367V245h55l1 63c15-42 49-68 95-68v63c-61 2-93 36-93 102v197h-58V367z"/></svg>